<?xml version="1.0" ?>
<svg xmlns="http://www.w3.org/2000/svg" xmlns:ev="http://www.w3.org/2001/xml-events" xmlns:xlink="http://www.w3.org/1999/xlink" baseProfile="full" height="501px" version="1.1" viewBox="-332.76652 -26.848720000000093 630.57304 525.81544" width="600px">
	<defs/>
	<path d="M 110.75,269.81 L 109.84,242.83999999999992 L 137.88,239.80999999999992 L 116.59,186.24999999999991 L 102.88,172.3799999999999 L 109.83999999999999,161.02999999999992 L 104.38,139.24999999999991 L 221.25,156.9399999999999 L 107.72,127.96999999999991 L 52.625,26.40999999999991 L 16.188000000000002,17.84399999999991 L -18.031,20.40599999999991 L -36.438,18.28099999999991 L -58.468999999999994,17.18799999999991 L -85.375,26.281 L -106.44,31.156 L -119.16,43.0 L -137.19,70.719 L -166.78,107.11999999999998 L -157.53,205.55999999999997 L -225.84,268.80999999999995 L -150.59,213.68999999999994 L -134.69,237.02999999999994 L -135.75,251.55999999999995 L -138.38,266.93999999999994 L -151.94,277.93999999999994 L -222.78,361.2199999999999 L -280.0,454.9299999999999 L -81.66,454.9299999999999 L 60.0,454.9299999999999 L 22.938000000000002,398.9099999999999 L 11.906000000000002,389.2199999999999 L 31.406000000000002,351.68999999999994 L 14.406000000000002,350.5299999999999 L 24.406000000000002,334.5599999999999 L 84.71900000000001,345.9399999999999 L 105.94000000000001,336.6199999999999 L 112.62,318.3399999999999 L 106.47,299.74999999999994 L 114.59,281.5899999999999 L 137.14,293.24 L 141.57,331.31 L 147.07999999999998,395.42 L 190.80999999999997,427.22 L 232.06999999999996,385.36 L 240.46999999999997,373.37 L 245.03999999999996,359.64 L 196.32999999999996,335.49 L 182.23999999999995,353.99 L 182.87999999999994,368.99 L 178.11999999999995,389.64 L 144.81999999999994,284.79999999999995 L 110.74999999999993,269.80999999999995" fill="none" stroke="#000000" stroke-width="0.52504"/>
	<path d="M -59.531,18.156 C -56.001999999999995,18.189999999999998 -52.961,18.784 -50.719,19.688 C -49.765,20.072 -48.984,20.529999999999998 -48.344,21.0 C -55.356,22.692 -61.58,24.372 -67.031,26.062 C -69.87700000000001,24.331 -76.123,24.330000000000002 -82.875,26.312 C -83.021,26.355 -83.168,26.393 -83.312,26.438000000000002 L -83.75,26.406000000000002 C -83.859,26.397000000000002 -83.985,26.415000000000003 -84.094,26.406000000000002 C -79.187,23.000000000000004 -74.416,20.804000000000002 -69.93799999999999,19.562 C -68.40599999999999,19.138 -66.89099999999999,18.854000000000003 -65.43799999999999,18.625 C -63.92499999999999,18.386 -62.45899999999999,18.238 -61.06199999999999,18.188 C -60.53899999999999,18.169 -60.03499999999999,18.151 -59.53099999999999,18.156 L -59.531,18.156" fill="none" stroke="#000000" stroke-width="0.52504"/>
	<path d="M -88.344,27.219 C -87.8,27.214000000000002 -87.244,27.200000000000003 -86.68799999999999,27.219 L -87.094,27.531000000000002 L -86.53099999999999,27.562 C -93.13699999999999,30.214000000000002 -97.499,34.129000000000005 -96.65599999999999,37.0 C -96.63199999999999,37.084 -96.59899999999999,37.171 -96.562,37.25 L -97.562,38.188 C -104.88,41.751000000000005 -111.57,45.313 -119.56,48.875 C -119.56,48.654 -119.56,48.429 -119.53,48.188 C -119.36,46.739000000000004 -118.66,44.984 -117.5,43.062000000000005 C -115.77,40.18000000000001 -113.0,37.005 -109.34,34.281000000000006 C -108.12,33.373000000000005 -106.78,32.50300000000001 -105.38000000000001,31.719000000000005 C -103.35000000000001,30.589000000000006 -101.18,29.596000000000004 -98.81200000000001,28.844000000000005 C -95.64000000000001,27.838000000000005 -92.14900000000002,27.253000000000004 -88.34400000000001,27.219000000000005 L -88.344,27.219" fill="none" stroke="#000000" stroke-width="0.52504"/>
</svg>
