<?xml version="1.0" ?>
<svg xmlns="http://www.w3.org/2000/svg" xmlns:ev="http://www.w3.org/2001/xml-events" xmlns:xlink="http://www.w3.org/1999/xlink" baseProfile="full" height="501px" version="1.1" viewBox="-332.76652 -26.848720000000093 630.57304 525.81544" width="600px">
	<defs/>
	<path d="M 110.75,269.81 L 109.84,242.83999999999992 L 137.88,239.80999999999992 L 116.59,186.24999999999991 L 102.88,172.3799999999999 L 109.83999999999999,161.02999999999992 L 104.38,139.24999999999991 L 221.25,156.9399999999999 L 107.72,127.96999999999991 L 52.625,26.40999999999991 L 16.188000000000002,17.84399999999991 L -18.031,20.40599999999991 L -36.438,18.28099999999991 L -58.468999999999994,17.18799999999991 L -82.875,26.312 L -69.812,18.781 L -85.375,26.281 L -105.38000000000001,31.719000000000005 L -88.34400000000001,27.219000000000005 L -97.562,38.188 L -119.56,48.875 L -109.34,34.281000000000006 L -119.16,43.0 L -137.19,70.719 L -166.78,107.11999999999998 L -157.53,205.55999999999997 L -225.84,268.80999999999995 L -150.59,213.68999999999994 L -134.69,237.02999999999994 L -135.75,251.55999999999995 L -138.38,266.93999999999994 L -151.94,277.93999999999994 L -222.78,361.2199999999999 L -280.0,454.9299999999999 L -81.66,454.9299999999999 L 60.0,454.9299999999999 L 22.938000000000002,398.9099999999999 L 11.906000000000002,389.2199999999999 L 31.406000000000002,351.68999999999994 L 14.406000000000002,350.5299999999999 L 24.406000000000002,334.5599999999999 L 84.71900000000001,345.9399999999999 L 105.94000000000001,336.6199999999999 L 112.62,318.3399999999999 L 106.47,299.74999999999994 L 114.59,281.5899999999999 L 137.14,293.24 L 141.57,331.31 L 147.07999999999998,395.42 L 190.80999999999997,427.22 L 232.06999999999996,385.36 L 240.46999999999997,373.37 L 245.03999999999996,359.64 L 196.32999999999996,335.49 L 182.23999999999995,353.99 L 182.87999999999994,368.99 L 178.11999999999995,389.64 L 144.81999999999994,284.79999999999995 L 110.74999999999993,269.80999999999995" fill="none" stroke="#000000" stroke-width="0.52504"/>
</svg>
