<svg viewBox="-345.63 -48.442000000000085 656.3 569.0020000000001" xmlns="http://www.w3.org/2000/svg">
<style>
.num { font: 6px sans-serif; }
</style>
<circle cx="110.75" cy="269.81" r="1.3126" />
<text x="113.3752" y="269.81" class="num">1</text>
<circle cx="109.84" cy="242.83999999999992" r="1.3126" />
<text x="112.46520000000001" y="242.83999999999992" class="num">2</text>
<circle cx="137.88" cy="239.80999999999992" r="1.3126" />
<text x="140.5052" y="239.80999999999992" class="num">3</text>
<circle cx="116.59" cy="186.24999999999991" r="1.3126" />
<text x="119.21520000000001" y="186.24999999999991" class="num">4</text>
<circle cx="102.88" cy="172.3799999999999" r="1.3126" />
<text x="105.5052" y="172.3799999999999" class="num">5</text>
<circle cx="109.83999999999999" cy="161.02999999999992" r="1.3126" />
<text x="112.4652" y="161.02999999999992" class="num">6</text>
<circle cx="104.38" cy="139.24999999999991" r="1.3126" />
<text x="107.0052" y="139.24999999999991" class="num">7</text>
<circle cx="221.25" cy="156.9399999999999" r="1.3126" />
<text x="223.8752" y="156.9399999999999" class="num">8</text>
<circle cx="107.72" cy="127.96999999999991" r="1.3126" />
<text x="110.3452" y="127.96999999999991" class="num">9</text>
<circle cx="52.625" cy="26.40999999999991" r="1.3126" />
<text x="55.2502" y="26.40999999999991" class="num">10</text>
<circle cx="16.188000000000002" cy="17.84399999999991" r="1.3126" />
<text x="18.813200000000002" y="17.84399999999991" class="num">11</text>
<circle cx="-18.031" cy="20.40599999999991" r="1.3126" />
<text x="-15.4058" y="20.40599999999991" class="num">12</text>
<circle cx="-36.438" cy="18.28099999999991" r="1.3126" />
<text x="-33.8128" y="18.28099999999991" class="num">13</text>
<circle cx="-58.468999999999994" cy="17.18799999999991" r="1.3126" />
<text x="-55.843799999999995" y="17.18799999999991" class="num">14</text>
<circle cx="-82.875" cy="26.312" r="1.3126" />
<text x="-80.2498" y="26.312" class="num">15</text>
<circle cx="-69.812" cy="18.781" r="1.3126" />
<text x="-67.18679999999999" y="18.781" class="num">16</text>
<circle cx="-85.375" cy="26.281" r="1.3126" />
<text x="-85.375" y="34.1566" class="num">17</text>
<circle cx="-105.38000000000001" cy="31.719000000000005" r="1.3126" />
<text x="-102.7548" y="31.719000000000005" class="num">18</text>
<circle cx="-88.34400000000001" cy="27.219000000000005" r="1.3126" />
<text x="-88.34400000000001" y="35.09460000000001" class="num">19</text>
<circle cx="-97.562" cy="38.188" r="1.3126" />
<text x="-94.93679999999999" y="38.188" class="num">20</text>
<circle cx="-119.56" cy="48.875" r="1.3126" />
<text x="-116.9348" y="48.875" class="num">21</text>
<circle cx="-109.34" cy="34.281000000000006" r="1.3126" />
<text x="-109.34" y="42.156600000000005" class="num">22</text>
<circle cx="-119.16" cy="43.0" r="1.3126" />
<text x="-119.16" y="50.8756" class="num">23</text>
<circle cx="-137.19" cy="70.719" r="1.3126" />
<text x="-134.5648" y="70.719" class="num">24</text>
<circle cx="-166.78" cy="107.11999999999998" r="1.3126" />
<text x="-164.1548" y="107.11999999999998" class="num">25</text>
<circle cx="-157.53" cy="205.55999999999997" r="1.3126" />
<text x="-154.9048" y="205.55999999999997" class="num">26</text>
<circle cx="-225.84" cy="268.80999999999995" r="1.3126" />
<text x="-223.2148" y="268.80999999999995" class="num">27</text>
<circle cx="-150.59" cy="213.68999999999994" r="1.3126" />
<text x="-147.9648" y="213.68999999999994" class="num">28</text>
<circle cx="-134.69" cy="237.02999999999994" r="1.3126" />
<text x="-132.0648" y="237.02999999999994" class="num">29</text>
<circle cx="-135.75" cy="251.55999999999995" r="1.3126" />
<text x="-133.1248" y="251.55999999999995" class="num">30</text>
<circle cx="-138.38" cy="266.93999999999994" r="1.3126" />
<text x="-135.7548" y="266.93999999999994" class="num">31</text>
<circle cx="-151.94" cy="277.93999999999994" r="1.3126" />
<text x="-149.3148" y="277.93999999999994" class="num">32</text>
<circle cx="-222.78" cy="361.2199999999999" r="1.3126" />
<text x="-220.1548" y="361.2199999999999" class="num">33</text>
<circle cx="-280.0" cy="454.9299999999999" r="1.3126" />
<text x="-277.3748" y="454.9299999999999" class="num">34</text>
<circle cx="-81.66" cy="454.9299999999999" r="1.3126" />
<text x="-79.03479999999999" y="454.9299999999999" class="num">35</text>
<circle cx="60.0" cy="454.9299999999999" r="1.3126" />
<text x="62.6252" y="454.9299999999999" class="num">36</text>
<circle cx="22.938000000000002" cy="398.9099999999999" r="1.3126" />
<text x="25.563200000000002" y="398.9099999999999" class="num">37</text>
<circle cx="11.906000000000002" cy="389.2199999999999" r="1.3126" />
<text x="14.531200000000002" y="389.2199999999999" class="num">38</text>
<circle cx="31.406000000000002" cy="351.68999999999994" r="1.3126" />
<text x="34.031200000000005" y="351.68999999999994" class="num">39</text>
<circle cx="14.406000000000002" cy="350.5299999999999" r="1.3126" />
<text x="17.031200000000002" y="350.5299999999999" class="num">40</text>
<circle cx="24.406000000000002" cy="334.5599999999999" r="1.3126" />
<text x="27.031200000000002" y="334.5599999999999" class="num">41</text>
<circle cx="84.71900000000001" cy="345.9399999999999" r="1.3126" />
<text x="87.34420000000001" y="345.9399999999999" class="num">42</text>
<circle cx="105.94000000000001" cy="336.6199999999999" r="1.3126" />
<text x="108.56520000000002" y="336.6199999999999" class="num">43</text>
<circle cx="112.62" cy="318.3399999999999" r="1.3126" />
<text x="115.24520000000001" y="318.3399999999999" class="num">44</text>
<circle cx="106.47" cy="299.74999999999994" r="1.3126" />
<text x="109.0952" y="299.74999999999994" class="num">45</text>
<circle cx="114.59" cy="281.5899999999999" r="1.3126" />
<text x="117.21520000000001" y="281.5899999999999" class="num">46</text>
<circle cx="137.14" cy="293.24" r="1.3126" />
<text x="139.7652" y="293.24" class="num">47</text>
<circle cx="141.57" cy="331.31" r="1.3126" />
<text x="144.1952" y="331.31" class="num">48</text>
<circle cx="147.07999999999998" cy="395.42" r="1.3126" />
<text x="149.7052" y="395.42" class="num">49</text>
<circle cx="190.80999999999997" cy="427.22" r="1.3126" />
<text x="193.43519999999998" y="427.22" class="num">50</text>
<circle cx="232.06999999999996" cy="385.36" r="1.3126" />
<text x="234.69519999999997" y="385.36" class="num">51</text>
<circle cx="240.46999999999997" cy="373.37" r="1.3126" />
<text x="243.09519999999998" y="373.37" class="num">52</text>
<circle cx="245.03999999999996" cy="359.64" r="1.3126" />
<text x="247.66519999999997" y="359.64" class="num">53</text>
<circle cx="196.32999999999996" cy="335.49" r="1.3126" />
<text x="198.95519999999996" y="335.49" class="num">54</text>
<circle cx="182.23999999999995" cy="353.99" r="1.3126" />
<text x="184.86519999999996" y="353.99" class="num">55</text>
<circle cx="182.87999999999994" cy="368.99" r="1.3126" />
<text x="185.50519999999995" y="368.99" class="num">56</text>
<circle cx="178.11999999999995" cy="389.64" r="1.3126" />
<text x="180.74519999999995" y="389.64" class="num">57</text>
<circle cx="144.81999999999994" cy="284.79999999999995" r="1.3126" />
<text x="147.44519999999994" y="284.79999999999995" class="num">58</text>
<circle cx="110.74999999999993" cy="269.80999999999995" r="1.3126" />
<text x="110.74999999999993" y="277.68559999999997" class="num">59</text>
</svg>