<?xml version="1.0" encoding="UTF-8" standalone="no"?>
<!-- Created with Inkscape (http://www.inkscape.org/) -->

<svg
   xmlns:dc="http://purl.org/dc/elements/1.1/"
   xmlns:cc="http://creativecommons.org/ns#"
   xmlns:rdf="http://www.w3.org/1999/02/22-rdf-syntax-ns#"
   xmlns:svg="http://www.w3.org/2000/svg"
   xmlns="http://www.w3.org/2000/svg"
   xmlns:sodipodi="http://sodipodi.sourceforge.net/DTD/sodipodi-0.dtd"
   xmlns:inkscape="http://www.inkscape.org/namespaces/inkscape"
   width="210mm"
   height="297mm"
   viewBox="0 0 210 297"
   version="1.1"
   id="svg8"
   inkscape:version="0.92.4 (5da689c313, 2019-01-14)"
   sodipodi:docname="vader.svg">
  <defs
     id="defs2" />
  <sodipodi:namedview
     id="base"
     pagecolor="#ffffff"
     bordercolor="#666666"
     borderopacity="1.0"
     inkscape:pageopacity="0.0"
     inkscape:pageshadow="2"
     inkscape:zoom="0.35"
     inkscape:cx="-155.71429"
     inkscape:cy="560"
     inkscape:document-units="mm"
     inkscape:current-layer="layer1"
     showgrid="false"
     inkscape:window-width="3840"
     inkscape:window-height="2066"
     inkscape:window-x="-11"
     inkscape:window-y="-11"
     inkscape:window-maximized="1" />
  <metadata
     id="metadata5">
    <rdf:RDF>
      <cc:Work
         rdf:about="">
        <dc:format>image/svg+xml</dc:format>
        <dc:type
           rdf:resource="http://purl.org/dc/dcmitype/StillImage" />
        <dc:title></dc:title>
      </cc:Work>
    </rdf:RDF>
  </metadata>
  <g
     inkscape:label="Layer 1"
     inkscape:groupmode="layer"
     id="layer1">
    <path
       style="fill:#000000;stroke-width:1"
       d="m 129.03104,155.85646 c -0.57393,-0.40199 -0.6073,-0.56361 -0.4776,-2.31274 0.0951,-1.28249 0.39762,-2.46956 0.95126,-3.73264 0.92291,-2.10553 1.1137,-4.32675 0.42102,-4.90162 -0.30725,-0.255 -1.18608,-0.29129 -3.63802,-0.15023 -1.7781,0.1023 -6.50713,0.30435 -10.50895,0.449 -12.5673,0.45428 -14.54529,0.59051 -14.81028,1.01999 -0.31609,0.5123 -2.866237,1.03143 -5.165767,1.05157 -1.29915,0.0114 -2.32601,0.20422 -3.43958,0.64592 -3.45004,1.36847 -6.05123,1.55774 -9.49236,0.69069 -1.14621,-0.28881 -2.14047,-0.52511 -2.20945,-0.52511 -0.16799,0 0.0565,-2.14444 0.27694,-2.64583 0.096,-0.21828 0.0695,-0.56178 -0.0588,-0.76333 -0.19601,-0.3078 -0.90491,-0.31855 -4.42899,-0.0671 -2.3076,0.16463 -7.68995,0.43664 -11.96078,0.60447 -6.603857,0.2595 -7.802847,0.24975 -8.017337,-0.0652 -0.13872,-0.20366 -0.18834,-1.05491 -0.11028,-1.89165 l 0.14194,-1.52136 -1.64959,-0.0158 c -0.90728,-0.009 -2.18537,-0.11735 -2.84022,-0.24149 -0.65484,-0.12415 -1.66687,-0.30568 -2.24896,-0.4034 -1.89203,-0.31763 -3.94813,-1.24759 -4.91295,-2.2221 -0.51932,-0.52453 -1.49294,-1.96573 -2.16362,-3.20265 -1.3052,-2.40719 -2.98766,-4.32643 -6.49432,-7.40827 -2.89986,-2.54856 -2.96286,-2.68346 -1.9345,-4.14241 0.93091,-1.32069 1.02807,-1.89301 0.358,-2.10879 -3.76751,-1.21327 -10.06061,-4.03313 -12.17303,-5.45458 -2.9439,-1.98096 -3.07412,-2.92202 -0.70507,-5.09533 0.79314,-0.7276 1.44045,-1.45293 1.43847,-1.61184 -0.002,-0.15891 -0.82177,-0.60993 -1.82174,-1.00226 -1.46404,-0.57439 -2.27375,-0.7171 -4.15737,-0.73273 -1.49675,-0.0124 -2.37451,0.0865 -2.43723,0.27465 -0.13457,0.40369 -0.84834,0.37271 -0.8449,-0.0367 0.004,-0.5182 2.09119,-3.16939 4.23499,-5.3803 4.38589,-4.523186 10.38065,-8.985516 16.43153,-12.231166 0.78288,-0.41993 1.89966,-1.02311 2.48174,-1.3404 3.0255,-1.64918 10.47022,-4.96942 15.74271,-7.02103 6.93648,-2.69908 8.11832,-3.17606 9.97137,-4.02435 0.754817,-0.34555 1.521637,-0.62827 1.704027,-0.62827 0.1824,0 2.36278,-1.00042 4.8453,-2.22316 4.6024,-2.26686 8.02089,-4.33262 8.53678,-5.15869 0.54195,-0.86781 0.0945,-1.81274 -1.27412,-2.69102 -1.03285,-0.66278 -1.29377,-0.9767 -1.29377,-1.55657 0,-0.60715 -0.46161,-1.09114 -2.81257,-2.94898 -1.54691,-1.22244 -3.48168,-2.76496 -4.29948,-3.427815 -0.8178,-0.66286 -2.14176,-1.69462 -2.94212,-2.29281 -0.80036,-0.5982 -2.12156,-1.60367 -2.935987,-2.23439 -3.31041,-2.56371 -5.62147,-4.37097 -6.7107,-5.24781 -1.03461,-0.83287 -2.56475,-2.02723 -7.71391,-6.02113 -0.88985,-0.6902 -2.08047,-1.6315 -2.64584,-2.09177 -0.56536,-0.460274 -2.23983,-1.769961 -3.72104,-2.910417 -6.56022,-5.051049 -9.3719,-7.320289 -10.01053,-8.079253 -0.84211,-1.000788 -0.81705,-2.154871 0.0495,-2.278272 1.0228,-0.145658 4.3885,1.91109 6.37015,3.89274 0.45064,0.450645 0.90857,0.819354 1.01762,0.819354 0.10904,0 0.86234,0.566829 1.67399,1.259619 1.97436,1.685217 3.65548,3.049402 6.10999,4.958089 2.65519,2.064743 7.21586,5.71248 8.72721,6.98026 0.65484,0.5493 1.91013,1.52717 2.78954,2.17304 0.87941,0.64587 2.48675,1.89822 3.57188,2.783 1.08512,0.88478 3.520757,2.77872 5.412527,4.20875 1.89178,1.43004 4.37165,3.3512 5.51084,4.26925 1.13919,0.918045 2.51899,1.789735 3.06622,1.937085 0.54724,0.14736 1.65339,0.83405 2.45811,1.52597 2.25859,1.94202 2.57658,2.1841 2.86903,2.1841 0.41876,0 2.30738,-1.01274 2.40942,-1.29202 0.0498,-0.1363 0.7454,-0.95521 1.54576,-1.81978 0.80036,-0.86458 1.99099,-2.20516 2.64583,-2.979065 2.52073,-2.97906 5.81829,-6.54871 7.59566,-8.22242 1.74511,-1.64332 5.087417,-4.20755 5.484277,-4.20755 0.17396,0 5.86625,-3.81348 6.32985,-4.2406 0.27947,-0.25748 -0.5089,-1.645411 -1.16867,-2.057445 -0.37187,-0.232234 -0.65329,-0.212387 -1.22595,0.08647 -0.40881,0.21334 -1.13156,0.461563 -1.60611,0.551607 -0.47455,0.09004 -0.92806,0.269281 -1.0078,0.398305 -0.0797,0.129024 -0.25702,0.23459 -0.39396,0.23459 -0.37869,0 -0.29632,-2.226205 0.18601,-5.027083 0.25968,-1.50794 0.44449,-4.154262 0.46196,-6.614583 0.0279,-3.929836 0.0593,-4.158346 0.75285,-5.473698 0.83357,-1.580925 1.98887,-2.553262 3.89367,-3.277032 1.60305,-0.609111 4.32277,-0.673558 5.60288,-0.132767 1.67272,0.706654 3.47229,3.056862 4.16843,5.443913 0.19098,0.654844 0.45469,1.397369 0.58602,1.650056 0.13134,0.252687 0.24031,0.609874 0.24215,0.79375 0.004,0.367026 0.75899,1.900045 2.86408,5.813067 1.04604,1.94441 1.34066,2.731776 1.21282,3.241145 -0.16854,0.671523 -0.16538,0.672821 1.64575,0.675679 4.0735,0.0064 7.48759,2.037066 8.89202,5.288806 1.38801,3.21373 1.91641,4.65873 2.32204,6.35 0.12215,0.50932 0.47331,1.81901 0.78034,2.91042 0.30704,1.0914 0.74327,2.81781 0.9694,3.83646 0.72844,3.281355 1.46462,6.844385 1.69469,8.202075 0.1233,0.7276 0.34429,1.97776 0.49109,2.77812 0.1468,0.80037 0.628,3.47927 1.06934,5.95313 2.3766,13.32162 2.55178,14.16397 4.04428,19.44686 0.9536,3.37539 2.47739,7.919256 3.23859,9.657286 0.1912,0.43657 0.54457,1.32953 0.78527,1.98438 0.68114,1.85314 2.52972,6.28337 3.50209,8.39299 0.48437,1.05089 0.88068,1.9618 0.88068,2.02425 0,0.0624 0.48807,1.16717 1.0846,2.45492 0.59654,1.28776 1.26947,2.7581 1.49541,3.26742 0.22594,0.50932 0.86896,1.91061 1.42894,3.11397 0.55998,1.20337 1.01814,2.24485 1.01814,2.31441 0,0.0696 0.34512,0.87092 0.76693,1.78081 1.7542,3.784 2.50738,5.47602 3.38635,7.60748 0.51009,1.23692 1.28712,3.02286 1.72673,3.96875 1.34828,2.90099 2.32207,5.34168 2.32207,5.81997 0,0.72972 -1.98993,2.78785 -3.9137,4.04782 -2.54237,1.66513 -5.65229,2.82373 -7.59568,2.82976 l -1.05833,0.003 v -2.17874 c 0,-1.92231 -0.0586,-2.19013 -0.4978,-2.27548 -0.27378,-0.0532 -0.75003,0.0219 -1.05833,0.16697 -3.37081,1.5858 -5.16679,2.09382 -7.58465,2.14543 -2.43561,0.052 -2.62225,0.16637 -2.63012,1.61181 -0.006,1.04257 -0.77248,2.4726 -1.54858,2.88795 -0.61058,0.32678 -2.21507,0.49281 -6.53491,0.67624 -2.67001,0.11337 -3.28552,0.0653 -3.80269,-0.29693 z M 120.74449,38.76667 c -0.16033,-0.481003 -1.52568,-0.776004 -2.78293,-0.601288 -2.11509,0.293928 -1.20432,0.79072 1.60955,0.877949 0.88802,0.02753 1.2466,-0.05702 1.17338,-0.276661 z"
       id="path826"
       inkscape:connector-curvature="0" />
  </g>
</svg>
