<svg viewBox="-5.00038825000005 2.550808749999934 189.1736425 172.51960549999998" xmlns="http://www.w3.org/2000/svg">
<style>
.num { font: 2px sans-serif; }
</style>
<circle cx="121.71113999999996" cy="38.41010399999994" r="0.37834728500000003" />
<text x="122.46783456999995" y="38.41010399999994" class="num">1</text>
<circle cx="132.24890999999997" cy="44.37458899999994" r="0.37834728500000003" />
<text x="133.00560456999997" y="44.37458899999994" class="num">2</text>
<circle cx="134.57094999999995" cy="50.724588999999945" r="0.37834728500000003" />
<text x="135.32764456999996" y="50.724588999999945" class="num">3</text>
<circle cx="136.32068999999996" cy="57.47146899999995" r="0.37834728500000003" />
<text x="137.07738456999996" y="57.47146899999995" class="num">4</text>
<circle cx="138.01537999999996" cy="65.67354399999995" r="0.37834728500000003" />
<text x="138.77207456999997" y="65.67354399999995" class="num">5</text>
<circle cx="139.57581" cy="74.40479399999995" r="0.37834728500000003" />
<text x="140.33250457" y="74.40479399999995" class="num">6</text>
<circle cx="143.62008999999998" cy="93.85165399999995" r="0.37834728500000003" />
<text x="144.37678456999998" y="93.85165399999995" class="num">7</text>
<circle cx="146.85867999999996" cy="103.50893999999995" r="0.37834728500000003" />
<text x="147.61537456999997" y="103.50893999999995" class="num">8</text>
<circle cx="151.14603999999997" cy="113.88630999999995" r="0.37834728500000003" />
<text x="151.90273456999998" y="113.88630999999995" class="num">9</text>
<circle cx="153.11131999999998" cy="118.36547999999995" r="0.37834728500000003" />
<text x="153.86801456999999" y="118.36547999999995" class="num">10</text>
<circle cx="156.03566999999998" cy="124.74686999999994" r="0.37834728500000003" />
<text x="156.79236457" y="124.74686999999994" class="num">11</text>
<circle cx="157.82073999999997" cy="128.84208999999993" r="0.37834728500000003" />
<text x="158.57743456999998" y="128.84208999999993" class="num">12</text>
<circle cx="161.20708999999997" cy="136.44956999999994" r="0.37834728500000003" />
<text x="161.96378456999997" y="136.44956999999994" class="num">13</text>
<circle cx="162.93381999999997" cy="140.41831999999994" r="0.37834728500000003" />
<text x="163.69051456999998" y="140.41831999999994" class="num">14</text>
<circle cx="165.25588999999997" cy="146.23828999999995" r="0.37834728500000003" />
<text x="166.01258456999997" y="146.23828999999995" class="num">15</text>
<circle cx="161.34218999999996" cy="150.28610999999995" r="0.37834728500000003" />
<text x="162.09888456999997" y="150.28610999999995" class="num">16</text>
<circle cx="153.74650999999997" cy="153.11586999999994" r="0.37834728500000003" />
<text x="154.50320456999998" y="153.11586999999994" class="num">17</text>
<circle cx="152.19037999999995" cy="148.66464999999994" r="0.37834728500000003" />
<text x="152.94707456999996" y="148.66464999999994" class="num">18</text>
<circle cx="143.54739999999993" cy="150.97704999999993" r="0.37834728500000003" />
<text x="144.30409456999993" y="150.97704999999993" class="num">19</text>
<circle cx="139.36869999999993" cy="155.47680999999992" r="0.37834728500000003" />
<text x="140.12539456999994" y="155.47680999999992" class="num">20</text>
<circle cx="132.83378999999994" cy="156.15304999999992" r="0.37834728500000003" />
<text x="133.59048456999994" y="156.15304999999992" class="num">21</text>
<circle cx="129.03109999999992" cy="155.85611999999992" r="0.37834728500000003" />
<text x="129.78779456999993" y="155.85611999999992" class="num">22</text>
<circle cx="129.50469999999999" cy="149.81108" r="0.37834728500000003" />
<text x="130.26139457" y="149.81108" class="num">23</text>
<circle cx="129.92571999999998" cy="144.90946" r="0.37834728500000003" />
<text x="130.68241457" y="144.90946" class="num">24</text>
<circle cx="115.77874999999999" cy="145.20823000000001" r="0.37834728500000003" />
<text x="116.53544456999998" y="145.20823000000001" class="num">25</text>
<circle cx="100.96846999999998" cy="146.22822000000002" r="0.37834728500000003" />
<text x="101.72516456999998" y="146.22822000000002" class="num">26</text>
<circle cx="95.80270299999998" cy="147.27979000000002" r="0.37834728500000003" />
<text x="96.55939756999997" y="147.27979000000002" class="num">27</text>
<circle cx="82.87076299999997" cy="148.6164" r="0.37834728500000003" />
<text x="83.62745756999996" y="148.6164" class="num">28</text>
<circle cx="80.87945299999996" cy="144.68213" r="0.37834728500000003" />
<text x="81.63614756999995" y="144.68213" class="num">29</text>
<circle cx="76.45046299999996" cy="144.61503" r="0.37834728500000003" />
<text x="77.20715756999995" y="144.61503" class="num">30</text>
<circle cx="64.48968299999996" cy="145.21949999999998" r="0.37834728500000003" />
<text x="65.24637756999995" y="145.21949999999998" class="num">31</text>
<circle cx="56.47234599999996" cy="145.15429999999998" r="0.37834728500000003" />
<text x="57.22904056999996" y="145.15429999999998" class="num">32</text>
<circle cx="54.85441599999996" cy="141.72548999999998" r="0.37834728500000003" />
<text x="55.61111056999996" y="141.72548999999998" class="num">33</text>
<circle cx="49.76523599999996" cy="141.08059999999998" r="0.37834728500000003" />
<text x="50.52193056999996" y="141.08059999999998" class="num">34</text>
<circle cx="44.85228599999996" cy="138.85849999999996" r="0.37834728500000003" />
<text x="45.60898056999996" y="138.85849999999996" class="num">35</text>
<circle cx="42.688665999999955" cy="135.65584999999996" r="0.37834728500000003" />
<text x="43.445360569999956" y="135.65584999999996" class="num">36</text>
<circle cx="36.19434599999995" cy="128.24757999999997" r="0.37834728500000003" />
<text x="36.951040569999954" y="128.24757999999997" class="num">37</text>
<circle cx="34.25984599999995" cy="124.10516999999997" r="0.37834728500000003" />
<text x="35.016540569999954" y="124.10516999999997" class="num">38</text>
<circle cx="22.44481599999995" cy="116.54179999999997" r="0.37834728500000003" />
<text x="23.20151056999995" y="116.54179999999997" class="num">39</text>
<circle cx="21.73974599999995" cy="111.44646999999996" r="0.37834728500000003" />
<text x="22.49644056999995" y="111.44646999999996" class="num">40</text>
<circle cx="17.19910599999995" cy="108.09963999999995" r="0.37834728500000003" />
<text x="17.95580056999995" y="108.09963999999995" class="num">41</text>
<circle cx="18.151965999999952" cy="102.95728999999994" r="0.37834728500000003" />
<text x="18.908660569999952" y="102.95728999999994" class="num">42</text>
<circle cx="34.583495999999954" cy="90.72612399999994" r="0.37834728500000003" />
<text x="35.340190569999955" y="90.72612399999994" class="num">43</text>
<circle cx="52.80794599999996" cy="82.36469399999994" r="0.37834728500000003" />
<text x="53.56464056999996" y="82.36469399999994" class="num">44</text>
<circle cx="62.77931599999996" cy="78.34034399999994" r="0.37834728500000003" />
<text x="63.53601056999996" y="78.34034399999994" class="num">45</text>
<circle cx="69.32864299999996" cy="75.48891399999994" r="0.37834728500000003" />
<text x="70.08533756999995" y="75.48891399999994" class="num">46</text>
<circle cx="77.86542299999996" cy="70.33022399999993" r="0.37834728500000003" />
<text x="78.62211756999996" y="70.33022399999993" class="num">47</text>
<circle cx="75.29753299999997" cy="66.08263399999994" r="0.37834728500000003" />
<text x="76.05422756999997" y="66.08263399999994" class="num">48</text>
<circle cx="72.48496299999998" cy="63.13365399999994" r="0.37834728500000003" />
<text x="73.24165756999997" y="63.13365399999994" class="num">49</text>
<circle cx="68.18548299999998" cy="59.70583899999994" r="0.37834728500000003" />
<text x="68.94217756999997" y="59.70583899999994" class="num">50</text>
<circle cx="62.30737599999998" cy="55.17863899999994" r="0.37834728500000003" />
<text x="63.06407056999998" y="55.17863899999994" class="num">51</text>
<circle cx="55.596675999999974" cy="49.93082899999994" r="0.37834728500000003" />
<text x="56.353370569999974" y="49.93082899999994" class="num">52</text>
<circle cx="47.882765999999975" cy="43.90969899999994" r="0.37834728500000003" />
<text x="48.639460569999976" y="43.90969899999994" class="num">53</text>
<circle cx="41.51588599999997" cy="38.90751199999994" r="0.37834728500000003" />
<text x="42.272580569999974" y="38.90751199999994" class="num">54</text>
<circle cx="31.505355999999974" cy="30.82825899999994" r="0.37834728500000003" />
<text x="32.26205056999997" y="30.82825899999994" class="num">55</text>
<circle cx="37.925005999999975" cy="32.442726999999934" r="0.37834728500000003" />
<text x="38.681700569999975" y="32.442726999999934" class="num">56</text>
<circle cx="46.726605999999975" cy="39.47978899999993" r="0.37834728500000003" />
<text x="47.483300569999976" y="39.47978899999993" class="num">57</text>
<circle cx="55.453815999999975" cy="46.460048999999934" r="0.37834728500000003" />
<text x="56.210510569999975" y="46.460048999999934" class="num">58</text>
<circle cx="61.81523599999998" cy="51.416088999999936" r="0.37834728500000003" />
<text x="62.57193056999998" y="51.416088999999936" class="num">59</text>
<circle cx="67.22776299999998" cy="55.62483899999994" r="0.37834728500000003" />
<text x="67.98445756999998" y="55.62483899999994" class="num">60</text>
<circle cx="72.73860299999998" cy="59.89408899999994" r="0.37834728500000003" />
<text x="73.49529756999998" y="59.89408899999994" class="num">61</text>
<circle cx="78.26293299999999" cy="63.35714399999994" r="0.37834728500000003" />
<text x="79.01962756999998" y="63.35714399999994" class="num">62</text>
<circle cx="83.54138299999998" cy="64.24922399999994" r="0.37834728500000003" />
<text x="84.29807756999998" y="64.24922399999994" class="num">63</text>
<circle cx="87.73297299999999" cy="59.45037899999994" r="0.37834728500000003" />
<text x="88.48966756999998" y="59.45037899999994" class="num">64</text>
<circle cx="95.32863299999998" cy="51.22795899999994" r="0.37834728500000003" />
<text x="96.08532756999998" y="51.22795899999994" class="num">65</text>
<circle cx="100.81290999999999" cy="47.020408999999944" r="0.37834728500000003" />
<text x="101.56960456999998" y="47.020408999999944" class="num">66</text>
<circle cx="107.14275999999998" cy="42.77980899999994" r="0.37834728500000003" />
<text x="107.89945456999997" y="42.77980899999994" class="num">67</text>
<circle cx="103.14202999999998" cy="41.36044099999994" r="0.37834728500000003" />
<text x="103.89872456999997" y="41.36044099999994" class="num">68</text>
<circle cx="101.92627999999996" cy="36.96625299999994" r="0.37834728500000003" />
<text x="102.68297456999996" y="36.96625299999994" class="num">69</text>
<circle cx="102.38823999999997" cy="30.351669999999938" r="0.37834728500000003" />
<text x="103.14493456999996" y="30.351669999999938" class="num">70</text>
<circle cx="103.14108999999996" cy="24.87797199999994" r="0.37834728500000003" />
<text x="103.89778456999996" y="24.87797199999994" class="num">71</text>
<circle cx="107.03475999999996" cy="21.600939999999937" r="0.37834728500000003" />
<text x="107.79145456999996" y="21.600939999999937" class="num">72</text>
<circle cx="112.63763999999996" cy="21.468172999999936" r="0.37834728500000003" />
<text x="113.39433456999996" y="21.468172999999936" class="num">73</text>
<circle cx="116.80606999999996" cy="26.91208599999994" r="0.37834728500000003" />
<text x="117.56276456999996" y="26.91208599999994" class="num">74</text>
<circle cx="120.49831999999996" cy="35.16895899999994" r="0.37834728500000003" />
<text x="121.25501456999996" y="35.16895899999994" class="num">75</text>
<circle cx="117.96156" cy="38.165382" r="0.37834728500000003" />
<text x="118.71825457" y="38.165382" class="num">76</text>
</svg>