<?xml version="1.0" ?>
<svg xmlns="http://www.w3.org/2000/svg" xmlns:ev="http://www.w3.org/2001/xml-events" xmlns:xlink="http://www.w3.org/1999/xlink" baseProfile="full" height="546px" version="1.1" viewBox="2.319399207999947 7.925656907999938 177.81619758400004 161.76990918399997" width="600px">
	<defs/>
	<path d="M 121.71113999999996,38.41010399999994 L 132.24890999999997,44.37458899999994 L 134.57094999999995,50.724588999999945 L 136.32068999999996,57.47146899999995 L 138.01537999999996,65.67354399999995 L 139.57581,74.40479399999995 L 143.62008999999998,93.85165399999995 L 146.85867999999996,103.50893999999995 L 151.14603999999997,113.88630999999995 L 153.11131999999998,118.36547999999995 L 156.03566999999998,124.74686999999994 L 157.82073999999997,128.84208999999993 L 161.20708999999997,136.44956999999994 L 162.93381999999997,140.41831999999994 L 165.25588999999997,146.23828999999995 L 161.34218999999996,150.28610999999995 L 153.74650999999997,153.11586999999994 L 152.19037999999995,148.66464999999994 L 143.54739999999993,150.97704999999993 L 139.36869999999993,155.47680999999992 L 132.83378999999994,156.15304999999992 L 129.03109999999992,155.85611999999992 L 129.50469999999999,149.81108 L 129.92571999999998,144.90946 L 115.77874999999999,145.20823000000001 L 100.96846999999998,146.22822000000002 L 95.80270299999998,147.27979000000002 L 82.87076299999997,148.6164 L 80.87945299999996,144.68213 L 76.45046299999996,144.61503 L 64.48968299999996,145.21949999999998 L 56.47234599999996,145.15429999999998 L 54.85441599999996,141.72548999999998 L 49.76523599999996,141.08059999999998 L 44.85228599999996,138.85849999999996 L 42.688665999999955,135.65584999999996 L 36.19434599999995,128.24757999999997 L 34.25984599999995,124.10516999999997 L 22.44481599999995,116.54179999999997 L 21.73974599999995,111.44646999999996 L 17.19910599999995,108.09963999999995 L 18.151965999999952,102.95728999999994 L 34.583495999999954,90.72612399999994 L 52.80794599999996,82.36469399999994 L 62.77931599999996,78.34034399999994 L 69.32864299999996,75.48891399999994 L 77.86542299999996,70.33022399999993 L 75.29753299999997,66.08263399999994 L 72.48496299999998,63.13365399999994 L 68.18548299999998,59.70583899999994 L 62.30737599999998,55.17863899999994 L 55.596675999999974,49.93082899999994 L 47.882765999999975,43.90969899999994 L 41.51588599999997,38.90751199999994 L 31.505355999999974,30.82825899999994 L 37.925005999999975,32.442726999999934 L 46.726605999999975,39.47978899999993 L 55.453815999999975,46.460048999999934 L 61.81523599999998,51.416088999999936 L 67.22776299999998,55.62483899999994 L 72.73860299999998,59.89408899999994 L 78.26293299999999,63.35714399999994 L 83.54138299999998,64.24922399999994 L 87.73297299999999,59.45037899999994 L 95.32863299999998,51.22795899999994 L 100.81290999999999,47.020408999999944 L 107.14275999999998,42.77980899999994 L 103.14202999999998,41.36044099999994 L 101.92627999999996,36.96625299999994 L 102.38823999999997,30.351669999999938 L 103.14108999999996,24.87797199999994 L 107.03475999999996,21.600939999999937 L 112.63763999999996,21.468172999999936 L 116.80606999999996,26.91208599999994 L 120.49831999999996,35.16895899999994 L 117.96156,38.165382" fill="none" stroke="#000000" stroke-width="0.14805678400000002"/>
</svg>
